PathFileType	4	(X/Y/Z)	Run_300 02
DataRate	CameraRate	NumFrames	NumMarkers	Units	OrigDataRate	OrigDataStartFrame	OrigNumFrames
100	100	6	45	mm	100	1	137
Frame#	Time	LASI			RASI			LPSI			RPSI			RTH1			RTH2			RTH3			LTH1			LTH2			LTH3			RTB1			RTB2			RTB3			RLMAL			RMMAL			LTB1			LTB2			LTB3			RCAL			RTOE			RMT5			LCAL			LTOE			LMT5			LACR			RACR			CLAV			C7			LPSH			RUA1			RUA2			RUA3			RLEL			RMEL			LUA1			LUA2			LUA3			LLEL			LMEL			RFAsuperior			RFAradius			RFAulna			LFAsuperior			LFAradius			LFAulna		
		X1	Y1	Z1	X2	Y2	Z2	X3	Y3	Z3	X4	Y4	Z4	X5	Y5	Z5	X6	Y6	Z6	X7	Y7	Z7	X8	Y8	Z8	X9	Y9	Z9	X10	Y10	Z10	X11	Y11	Z11	X12	Y12	Z12	X13	Y13	Z13	X14	Y14	Z14	X15	Y15	Z15	X16	Y16	Z16	X17	Y17	Z17	X18	Y18	Z18	X19	Y19	Z19	X20	Y20	Z20	X21	Y21	Z21	X22	Y22	Z22	X23	Y23	Z23	X24	Y24	Z24	X25	Y25	Z25	X26	Y26	Z26	X27	Y27	Z27	X28	Y28	Z28	X29	Y29	Z29	X30	Y30	Z30	X31	Y31	Z31	X32	Y32	Z32	X33	Y33	Z33	X34	Y34	Z34	X35	Y35	Z35	X36	Y36	Z36	X37	Y37	Z37	X38	Y38	Z38	X39	Y39	Z39	X40	Y40	Z40	X41	Y41	Z41	X42	Y42	Z42	X43	Y43	Z43	X44	Y44	Z44	X45	Y45	Z45	

1	  0.010000	952.097918	1091.380764	-420.684344	964.011608	1080.328413	-193.248561	795.165611	1130.902867	-351.095896	797.978837	1128.102742	-261.642613	800.138606	842.430672	-139.528934	845.636002	755.124101	-169.922073	743.466767	683.856543	-170.465340	914.651626	878.410180	-466.665724	1033.641402	812.766609	-457.712173	1026.734224	702.548986	-438.458723	675.841879	437.433827	-216.456050	606.047122	411.427845	-179.304198	564.550888	289.236371	-228.908194	469.721553	212.734940	-220.060045	506.440435	220.464597	-296.552377	1100.418189	483.594496	-409.602929	997.549905	397.776105	-430.134979	1047.713129	298.172151	-392.194336	417.638851	238.944653	-286.751229	548.156352	 72.351785	-272.333956	485.394523	 87.717974	-203.929363	923.154082	166.462101	-339.732859	1139.456751	114.356572	-370.960617	1075.322796	103.017939	-434.703924	875.897945	1594.356944	-450.288219	950.464493	1565.385692	-143.626240	990.240241	1513.951299	-289.945198	881.213482	1603.894670	-287.462607	792.661918	1567.651906	-433.314995	927.142063	1418.912581	-50.220851	848.584335	1369.915094	-39.922941	867.139160	1314.549322	  0.111505	889.217767	1247.767111	 16.039124	824.889795	1235.847348	-50.808097	756.265914	1508.263696	-488.117038	689.133228	1452.834738	-446.718715	663.236308	1416.381876	-507.841947	630.610260	1342.345438	-529.875659	629.690164	1333.573216	-439.390039	935.015093	1211.321887	-36.769200	1045.247870	1294.034847	-182.807600	1061.056875	1229.079695	-170.360943	697.099074	1273.112020	-512.300270	869.930139	1295.686727	-496.888309	858.034130	1228.882933	-505.679775	
2	  0.020000	953.054598	1095.517350	-420.006438	964.996231	1084.919451	-193.169559	796.938826	1134.864674	-351.716583	799.338599	1132.292772	-261.833540	798.322557	848.544830	-139.881209	843.842996	760.307161	-169.333849	741.834531	689.461191	-170.579304	911.724788	878.613852	-464.946230	1027.179466	810.307162	-458.163634	1018.761755	700.568352	-438.901403	669.438420	443.977807	-216.873847	599.243930	420.159625	-179.690468	553.203390	299.769431	-228.818611	455.771458	227.296465	-219.888672	492.886830	232.700246	-295.587452	1101.520829	481.788554	-410.016598	1007.628119	387.067914	-429.788408	1065.358021	292.942768	-390.459063	407.021642	257.049856	-286.315371	530.020376	 76.477052	-270.404135	464.658023	101.510662	-203.679933	951.684654	153.010699	-337.827212	1171.463114	116.064610	-364.621005	1109.451706	 99.118737	-429.002430	876.455780	1598.380674	-450.981547	950.952723	1569.539909	-145.339045	991.194484	1517.946162	-291.374995	881.792694	1607.190629	-288.510859	793.183092	1572.788082	-432.895089	928.269802	1424.029130	-51.599942	849.429678	1376.155553	-39.508305	867.627993	1320.298912	 -0.365111	888.962174	1253.127119	 15.884812	823.586421	1241.800625	-50.430164	755.707573	1514.355430	-485.987145	689.920142	1459.596082	-442.429874	661.402270	1423.412176	-502.124798	626.883549	1349.318685	-523.037960	628.561612	1340.909043	-432.429310	933.899727	1216.976571	-37.827913	1042.208894	1300.530834	-184.945556	1058.034958	1235.489205	-173.242538	693.554704	1279.722605	-506.907426	866.875099	1301.895922	-496.517327	854.668854	1235.059203	-504.540113	
3	  0.030000	954.024901	1098.441057	-419.083798	965.674373	1088.937687	-192.677293	798.259869	1137.895092	-352.145462	800.319832	1135.782823	-261.737781	798.288982	852.914634	-139.759705	844.079723	764.175290	-169.927315	742.346371	693.371126	-170.803810	908.188149	878.330101	-463.494967	1021.058146	807.392072	-458.355367	1010.729544	697.853129	-440.138969	664.225422	449.516003	-217.550570	593.312151	428.350078	-180.326525	542.195476	310.184127	-228.896687	441.654440	242.390058	-220.062470	479.579284	245.080959	-295.048013	1101.701003	479.653685	-410.635425	1016.289668	377.256404	-428.946775	1081.148192	288.524628	-388.339741	396.395979	274.799522	-286.869413	510.523495	 83.261314	-267.819324	443.815075	116.344673	-202.885461	978.118965	142.025352	-334.900296	1200.438422	118.299636	-358.390892	1140.272215	 96.121461	-423.146361	877.128345	1601.462442	-451.933858	951.261972	1572.924428	-147.034316	992.178142	1521.209488	-292.881251	882.414234	1609.892358	-289.837782	793.866992	1576.910934	-432.885259	929.043618	1428.209958	-52.929819	849.910492	1381.457605	-39.334313	867.688331	1325.217459	 -0.781976	888.216428	1257.696059	 15.872721	822.049127	1247.032952	-50.136528	755.284294	1519.347800	-484.195082	690.809532	1465.103388	-438.429931	659.883445	1429.297722	-496.979973	623.774885	1355.128457	-517.030493	627.871546	1347.020780	-426.244700	932.404763	1221.726457	-38.467774	1039.316044	1305.511556	-186.589305	1054.970990	1240.365230	-175.500930	690.650229	1285.253632	-502.197437	864.341899	1307.142095	-496.325143	851.928122	1240.319613	-503.922432	
4	  0.040000	954.990721	1099.648493	-417.937098	965.989815	1091.993004	-191.683577	798.983344	1139.500734	-352.263692	800.906700	1138.060013	-261.348279	801.055465	854.386810	-139.445140	847.081278	766.067096	-172.030834	745.825816	694.752790	-171.262063	904.322841	877.670599	-462.730002	1015.576355	803.911329	-458.448378	1002.680147	694.189882	-442.428256	660.850960	453.508675	-218.558832	588.779744	435.846801	-181.401067	531.895520	320.495167	-229.190967	427.682507	258.302439	-220.710180	466.791325	257.739849	-295.081471	1100.426314	477.105761	-411.489278	1022.438033	368.930931	-427.367334	1093.740095	285.303546	-385.880955	385.744180	291.954984	-288.728737	490.040186	 93.898067	-264.101267	423.506316	132.864426	-201.097697	1000.773104	134.604762	-330.377070	1224.268820	121.183420	-352.847273	1165.383785	 94.606869	-417.560443	878.020606	1603.122136	-453.333374	951.432871	1575.119115	-148.707303	993.158827	1523.330233	-294.473878	883.069603	1611.684606	-291.586662	794.809137	1579.451158	-433.573443	929.180767	1431.010716	-54.117094	849.730704	1385.327675	-39.591771	867.017257	1328.921455	 -1.126336	886.658039	1261.100830	 16.032099	820.069718	1251.122330	-49.968916	755.167723	1522.598487	-483.112032	691.941459	1468.637551	-435.126570	658.905371	1433.374963	-492.840365	621.648203	1359.076460	-512.478182	627.859251	1351.162962	-421.393027	930.248995	1225.045832	-38.587332	1036.669345	1308.096240	-187.494304	1051.931435	1242.838482	-176.777911	688.784538	1289.058210	-498.696262	862.690605	1310.854342	-496.474840	850.195867	1244.072847	-504.065215	
5	  0.050000	955.884961	1099.431209	-416.835969	966.127992	1093.896171	-190.460851	799.255060	1139.645183	-352.017071	801.361414	1138.864018	-260.852132	806.330376	852.890647	-139.634592	852.116352	766.083850	-174.981655	751.631686	693.742250	-172.068974	901.044368	877.043930	-462.998387	1010.766703	800.011034	-458.955358	994.782903	689.880727	-445.191967	659.390793	455.932892	-219.826424	585.896526	442.800119	-182.960480	522.737376	330.770635	-229.622067	414.677638	274.992371	-221.665066	454.901419	270.722089	-295.531075	1097.708908	474.269649	-412.433895	1025.549522	362.196843	-425.019206	1102.470888	283.068371	-383.510298	375.295440	308.499121	-291.460863	470.418141	107.703780	-259.090276	404.971637	151.121267	-198.137804	1018.435970	130.231777	-324.357464	1241.916584	124.211462	-348.748779	1183.602560	 94.563228	-413.090493	879.205505	1603.371414	-455.244929	951.679326	1576.096696	-150.366133	994.049168	1524.238426	-296.081690	883.691408	1612.536640	-293.710407	796.002635	1580.360521	-435.085811	928.530869	1432.527200	-55.074496	848.698122	1387.782238	-40.359813	865.460441	1331.495436	 -1.454076	884.172839	1263.417088	 16.295201	817.531780	1254.006265	-49.954089	755.544765	1523.969965	-483.092244	693.422314	1470.097497	-433.022521	658.601391	1435.477448	-490.026799	620.595740	1360.964747	-509.701108	628.537323	1353.120622	-418.183539	927.301989	1226.861282	-38.362227	1034.322708	1308.129508	-187.686664	1049.036703	1242.784897	-176.938922	688.068945	1290.966570	-496.694778	862.091151	1312.873069	-497.074578	849.601851	1246.100303	-504.901326	
6	  0.060000	956.589573	1098.420506	-416.048431	966.305936	1094.564464	-189.380059	799.241401	1138.514017	-351.380645	801.833273	1138.163503	-260.313365	812.702815	849.380233	-140.575761	857.889141	764.661867	-177.745591	758.556408	690.894972	-173.266211	898.879706	876.422998	-464.230655	1006.335546	795.772802	-460.408006	987.390269	685.377882	-447.335697	659.692317	456.998684	-221.306360	584.884103	449.236298	-184.862662	515.201719	340.924509	-230.078717	403.585636	292.169991	-222.590855	444.416773	283.896791	-296.115151	1093.986599	471.281271	-413.198918	1025.768947	356.765960	-421.949403	1107.241155	281.198741	-381.549344	365.757260	324.615192	-294.351999	453.261630	122.999769	-253.005872	389.241711	170.654247	-194.216123	1030.288687	127.578889	-317.573166	1253.089405	126.413601	-346.279330	1194.778260	 95.176253	-410.165735	880.696848	1602.414626	-457.572090	952.139642	1576.018444	-152.010861	994.771514	1524.005608	-297.596006	884.196135	1612.500301	-296.025957	797.356258	1579.866798	-437.407197	927.107366	1433.072748	-55.808142	846.753646	1389.103575	-41.578863	862.968676	1333.181866	 -1.872811	880.786025	1264.885228	 16.573607	814.492677	1255.847215	-50.180279	756.528136	1523.568345	-484.333875	695.200041	1469.714395	-432.523884	659.047460	1435.620537	-488.828031	620.597829	1360.821083	-508.743592	629.801133	1352.947777	-416.772343	923.590031	1227.367474	-37.949468	1032.317213	1305.840581	-187.292017	1046.334021	1240.437721	-175.959083	688.458870	1291.023722	-496.259595	862.585021	1313.207817	-498.144289	850.164168	1246.385157	-506.237770	
